<mxfile host="65bd71144e">
    <diagram id="-HcdjBS3nR2hqgzSQnTo" name="Page-1">
        <mxGraphModel dx="1100" dy="545" grid="1" gridSize="10" guides="1" tooltips="1" connect="1" arrows="1" fold="1" page="1" pageScale="1" pageWidth="827" pageHeight="1169" math="0" shadow="0">
            <root>
                <mxCell id="0"/>
                <mxCell id="1" parent="0"/>
                <mxCell id="2" value="Vertical Container" style="swimlane;" vertex="1" parent="1">
                    <mxGeometry x="310" y="180" width="200" height="200" as="geometry"/>
                </mxCell>
                <mxCell id="3" value="Test" style="rounded=0;whiteSpace=wrap;html=1;" vertex="1" parent="2">
                    <mxGeometry x="30" y="70" width="120" height="60" as="geometry"/>
                </mxCell>
            </root>
        </mxGraphModel>
    </diagram>
</mxfile>
